<?xml version="1.0" encoding="utf-8"?><svg viewBox="0 0 800 800" xmlns="http://www.w3.org/2000/svg" xmlns:xlink="http://www.w3.org/1999/xlink"><style>:root>svg{display:none}:root>svg:target{display:block}</style><svg viewBox="-337 273 123.5 256" xml:space="preserve" id="facebook-svgrepo-com" xmlns="http://www.w3.org/2000/svg"><path d="M-260.9 327.8c0-10.3 9.2-14 19.5-14s21.3 3.2 21.3 3.2l6.6-39.2s-14-4.8-47.4-4.8c-20.5 0-32.4 7.8-41.1 19.3-8.2 10.9-8.5 28.4-8.5 39.7v25.7H-337V396h26.5v133h49.6V396h39.3l2.9-38.3h-42.2v-29.9z"/></svg><svg fill="currentColor" viewBox="0 0 1920 1920" id="fb" xmlns="http://www.w3.org/2000/svg"><path d="M1168.737 487.897c44.672-41.401 113.824-36.889 118.9-36.663l289.354-.113 6.317-417.504L1539.65 22.9C1511.675 16.02 1426.053 0 1237.324 0 901.268 0 675.425 235.206 675.425 585.137v93.97H337v451.234h338.425V1920h451.234v-789.66h356.7l62.045-451.233H1126.66v-69.152c0-54.937 14.214-96.112 42.078-122.058" fill-rule="evenodd"/></svg><svg fill="currentColor" viewBox="-5.5 0 32 32" id="insta" xmlns="http://www.w3.org/2000/svg"><path d="M21.25 14.188V7.719a2.148 2.148 0 0 0-2.125-2.125h-17A2.148 2.148 0 0 0 0 7.719v6.469h5.156c.813-2.219 2.969-3.813 5.469-3.813s4.656 1.594 5.469 3.813h5.156zm0 1.875h-4.781v.156c0 3.219-2.625 5.844-5.844 5.844s-5.844-2.625-5.844-5.844v-.156H0v8.656c0 1.156.969 2.125 2.125 2.125h17a2.148 2.148 0 0 0 2.125-2.125v-8.656zM1.844 7.469h1.063v4.875H1.844V7.469zm2.125 0h1.063v4.875H3.969V7.469zm2.125 0h1.063v3.063c-.344.25-.719.531-1.063.813V7.47zm4.531 12.75c2.219 0 3.969-1.781 3.969-4s-1.75-3.969-3.969-3.969-4 1.75-4 3.969 1.781 4 4 4zm3.719-12.75h5.031v4.875H16c-.438-.656-1.031-1.188-1.656-1.625v-3.25z"/></svg><svg viewBox="0 0 32 32" id="instagram-svgrepo-com" xmlns="http://www.w3.org/2000/svg"><path d="M25.805 7.996v.001a1.8 1.8 0 1 1-1.799-1.799 1.8 1.8 0 0 1 1.799 1.798zM16 20.999A4.999 4.999 0 1 1 20.999 16v.001a4.997 4.997 0 0 1-4.997 4.997h-.001zM16 8.3a7.7 7.7 0 1 0 7.7 7.7v-.001a7.7 7.7 0 0 0-7.7-7.7h-.001zm0-4.596c4.003 0 4.48.02 6.061.089a8.237 8.237 0 0 1 2.84.538l-.057-.019a4.964 4.964 0 0 1 2.835 2.812l.012.034c.316.826.504 1.781.516 2.778v.005c.071 1.582.087 2.057.087 6.061s-.019 4.48-.092 6.061a8.434 8.434 0 0 1-.545 2.841l.019-.058a4.786 4.786 0 0 1-1.123 1.726l-.001.001a4.684 4.684 0 0 1-1.692 1.109l-.032.011a8.17 8.17 0 0 1-2.788.516h-.005c-1.592.071-2.061.087-6.072.087-4.013 0-4.481-.019-6.072-.092a8.503 8.503 0 0 1-2.853-.545l.059.019a4.658 4.658 0 0 1-1.722-1.122l-.001-.001a4.562 4.562 0 0 1-1.114-1.693l-.01-.031a8.349 8.349 0 0 1-.525-2.785v-.008c-.056-1.575-.076-2.061-.076-6.053 0-3.994.02-4.481.076-6.075a8.485 8.485 0 0 1 .544-2.85l-.019.059a4.466 4.466 0 0 1 1.123-1.724l.002-.002a4.446 4.446 0 0 1 1.692-1.112l.031-.01a8.131 8.131 0 0 1 2.768-.526h.007c1.593-.056 2.062-.075 6.072-.075zm0-2.7c-4.074 0-4.582.019-6.182.09a11.032 11.032 0 0 0-3.716.723l.076-.025A7.387 7.387 0 0 0 3.522 3.52l-.001.001a7.327 7.327 0 0 0-1.713 2.607l-.017.05a10.793 10.793 0 0 0-.697 3.628v.012c-.075 1.6-.09 2.108-.09 6.182s.019 4.582.09 6.182c.028 1.315.282 2.562.723 3.716l-.025-.076a7.709 7.709 0 0 0 4.334 4.368l.052.018c1.078.415 2.326.669 3.628.697h.012c1.6.075 2.108.09 6.182.09s4.582-.019 6.182-.09a11.057 11.057 0 0 0 3.716-.723l-.076.026a7.709 7.709 0 0 0 4.368-4.334l.018-.052c.416-1.078.669-2.326.697-3.628v-.012c.075-1.6.09-2.108.09-6.182s-.019-4.582-.09-6.182a11.057 11.057 0 0 0-.723-3.716l.026.076a7.39 7.39 0 0 0-1.729-2.656l-.001-.001a7.327 7.327 0 0 0-2.607-1.713l-.05-.017a10.793 10.793 0 0 0-3.628-.697h-.012c-1.6-.075-2.108-.09-6.182-.09z"/></svg></svg>